<svg xmlns="http://www.w3.org/2000/svg" width="100" height="100" viewBox="0 0 100 100"><rect width="100%" height="100%" fill="#808080"/><path fill="#FFFFFF" d="M28.135 50.155h7.59l-2.9-7.94q-.22-.52-.45-1.25t-.46-1.57q-.22.84-.45 1.58-.23.73-.44 1.28zm6.05-14.85 9.38 23.86h-3.44q-.57 0-.94-.29-.36-.29-.54-.72l-1.78-4.86h-9.89l-1.78 4.86q-.13.38-.51.7-.38.31-.94.31h-3.46l9.38-23.86zm15.28 11.88v7.59q.7.84 1.51 1.19.82.35 1.78.35.92 0 1.66-.35.75-.35 1.27-1.06t.8-1.79.28-2.55q0-1.48-.24-2.51t-.69-1.68q-.44-.64-1.08-.94-.63-.3-1.44-.3-1.27 0-2.16.54t-1.69 1.51m-.54-4.21.33 1.57q1.04-1.17 2.36-1.9 1.32-.72 3.1-.72 1.39 0 2.53.58 1.15.57 1.98 1.67.84 1.1 1.29 2.71.45 1.6.45 3.68 0 1.9-.51 3.52-.51 1.61-1.46 2.8t-2.29 1.86q-1.35.67-3.01.67-1.42 0-2.43-.44-1-.44-1.8-1.21v6.93h-4.07v-22.46h2.49q.79 0 1.04.74m19.29 4.21v7.59q.69.84 1.51 1.19.81.35 1.77.35.93 0 1.67-.35t1.26-1.06.8-1.79.28-2.55q0-1.48-.24-2.51t-.68-1.68q-.45-.64-1.08-.94-.64-.3-1.45-.3-1.27 0-2.16.54t-1.68 1.51m-.55-4.21.33 1.57q1.04-1.17 2.36-1.9 1.32-.72 3.1-.72 1.39 0 2.54.58 1.14.57 1.98 1.67.83 1.1 1.28 2.71.46 1.6.46 3.68 0 1.9-.51 3.52-.51 1.61-1.46 2.8t-2.3 1.86q-1.34.67-3.01.67-1.42 0-2.42-.44-1.01-.44-1.8-1.21v6.93h-4.08v-22.46h2.49q.8 0 1.04.74"/></svg>